<svg width="103" height="103" viewBox="0 0 103 103" fill="none" xmlns="http://www.w3.org/2000/svg">
<path d="M30.5981 74.05C30.1288 74.05 29.7234 73.8794 29.3821 73.538C29.0408 73.1967 28.8701 72.7914 28.8701 72.322V30.978C28.8701 30.5087 29.0408 30.1034 29.3821 29.762C29.7234 29.4207 30.1288 29.25 30.5981 29.25H40.7101C41.5634 29.25 42.2034 29.4847 42.6301 29.954C43.0568 30.4234 43.3341 30.7647 43.4621 30.978L52.7421 46.338L62.0221 30.978C62.1501 30.7647 62.4274 30.4234 62.8541 29.954C63.2808 29.4847 63.9208 29.25 64.7741 29.25H74.8861C75.3554 29.25 75.7608 29.4207 76.1021 29.762C76.4434 30.1034 76.6141 30.5087 76.6141 30.978V72.322C76.6141 72.7914 76.4434 73.1967 76.1021 73.538C75.7608 73.8794 75.3554 74.05 74.8861 74.05H63.3021C62.8328 74.05 62.4274 73.8794 62.0861 73.538C61.7448 73.1967 61.5741 72.7914 61.5741 72.322V54.786L57.3501 61.698C57.1368 62.0394 56.8381 62.402 56.4541 62.786C56.1128 63.1274 55.6221 63.298 54.9821 63.298H50.5021C49.8621 63.298 49.3501 63.1274 48.9661 62.786C48.6248 62.402 48.3474 62.0394 48.1341 61.698L43.9101 54.786V72.322C43.9101 72.7914 43.7394 73.1967 43.3981 73.538C43.0568 73.8794 42.6514 74.05 42.1821 74.05H30.5981ZM73.9261 31.042C73.4994 30.786 73.0728 30.8714 72.6461 31.298C72.4754 31.4687 72.4114 31.6394 72.4541 31.81C72.5394 31.938 72.6461 32.13 72.7741 32.386C72.9021 32.5994 72.9874 32.77 73.0301 32.898C73.1154 33.026 73.2861 33.0687 73.5421 33.026C73.8408 32.9834 74.0541 32.9194 74.1821 32.834C74.3528 32.7487 74.4594 32.5567 74.5021 32.258C74.5874 31.7034 74.3954 31.298 73.9261 31.042ZM64.4541 31.874C64.1554 31.746 63.9208 31.746 63.7501 31.874C63.6221 32.002 63.4514 32.194 63.2381 32.45C63.0674 32.6634 63.0034 32.8554 63.0461 33.026C63.0888 33.154 63.1741 33.3247 63.3021 33.538C63.5154 33.8794 63.8141 34.0074 64.1981 33.922C64.5821 33.794 64.7954 33.538 64.8381 33.154C64.8381 32.8127 64.8381 32.5567 64.8381 32.386C64.8808 32.1727 64.7528 32.002 64.4541 31.874ZM31.8141 32.386L30.9821 32.642L30.3421 33.282L31.1741 33.794L32.0061 33.41L31.8141 32.386ZM69.5101 36.418C68.9981 36.29 68.6781 36.3754 68.5501 36.674C68.4648 36.9727 68.2941 37.314 68.0381 37.698C67.7821 38.1247 67.5688 38.4447 67.3981 38.658C67.2274 38.8714 67.2914 39.17 67.5901 39.554C67.9314 39.938 68.2301 40.1514 68.4861 40.194C68.7421 40.194 69.1261 40.0874 69.6381 39.874C70.0648 39.7034 70.3208 39.5114 70.4061 39.298C70.5341 39.042 70.5768 38.6794 70.5341 38.21C70.4914 37.698 70.4274 37.314 70.3421 37.058C70.2568 36.7594 69.9794 36.546 69.5101 36.418ZM34.1821 38.21C34.0968 37.826 34.0114 37.5487 33.9261 37.378C33.8408 37.2074 33.6061 37.122 33.2221 37.122C32.8381 37.122 32.5608 37.186 32.3901 37.314C32.2621 37.3994 32.1128 37.634 31.9421 38.018C31.8141 38.3167 31.8141 38.5514 31.9421 38.722C32.0701 38.85 32.2621 39.0207 32.5181 39.234C32.9021 39.5754 33.3074 39.5967 33.7341 39.298C34.1608 39.042 34.3101 38.6794 34.1821 38.21ZM40.9661 38.018C40.8808 37.7194 40.6248 37.5914 40.1981 37.634C39.9848 37.634 39.7928 37.6554 39.6221 37.698C39.4941 37.698 39.3874 37.8047 39.3021 38.018C39.2594 38.274 39.3021 38.4234 39.4301 38.466C39.6008 38.5087 39.7928 38.594 40.0061 38.722C40.1768 38.85 40.3048 38.978 40.3901 39.106C40.5181 39.1914 40.6888 39.1487 40.9021 38.978C41.0728 38.85 41.1368 38.722 41.0941 38.594C41.0941 38.4234 41.0514 38.2314 40.9661 38.018ZM64.6461 39.49C64.3048 39.49 64.0274 39.49 63.8141 39.49C63.6434 39.4474 63.4941 39.5967 63.3661 39.938C63.2381 40.322 63.1954 40.6207 63.2381 40.834C63.2808 41.0047 63.4514 41.218 63.7501 41.474C64.0488 41.73 64.2834 41.794 64.4541 41.666C64.6248 41.538 64.8594 41.3674 65.1581 41.154C65.4568 40.9834 65.6701 40.834 65.7981 40.706C65.9261 40.578 65.9474 40.3434 65.8621 40.002C65.7768 39.7034 65.6274 39.554 65.4141 39.554C65.2434 39.5114 64.9874 39.49 64.6461 39.49ZM45.2541 42.178C44.9128 41.8367 44.6141 41.6234 44.3581 41.538C44.1448 41.41 43.8461 41.4527 43.4621 41.666C42.9928 41.922 42.6728 42.178 42.5021 42.434C42.3741 42.6474 42.3741 43.0314 42.5021 43.586C42.5874 44.0554 42.7368 44.354 42.9501 44.482C43.2061 44.5674 43.5901 44.6527 44.1021 44.738C44.4861 44.7807 44.7421 44.7167 44.8701 44.546C44.9981 44.3327 45.1474 44.0554 45.3181 43.714C45.4888 43.3727 45.5954 43.0954 45.6381 42.882C45.6808 42.6687 45.5528 42.434 45.2541 42.178ZM38.5981 42.306C37.4461 41.8794 36.5714 41.794 35.9741 42.05C35.3768 42.2634 34.6941 42.8394 33.9261 43.778C33.5421 44.3327 33.3928 44.7807 33.4781 45.122C33.5634 45.4634 33.7768 45.826 34.1181 46.21C34.4594 46.594 34.8008 47.0634 35.1421 47.618C35.6541 48.3434 36.0594 48.9407 36.3581 49.41C36.6568 49.8367 37.2328 49.922 38.0861 49.666C38.9821 49.41 39.4514 49.026 39.4941 48.514C39.5794 48.002 39.6434 47.2767 39.6861 46.338C39.7288 45.6554 39.7928 45.058 39.8781 44.546C39.9634 44.034 39.9208 43.6074 39.7501 43.266C39.6221 42.882 39.2381 42.562 38.5981 42.306ZM71.6861 42.434C71.3874 42.3914 71.1528 42.37 70.9821 42.37C70.8114 42.37 70.6621 42.5194 70.5341 42.818C70.4061 43.074 70.4274 43.2447 70.5981 43.33C70.7688 43.4154 70.9608 43.5434 71.1741 43.714C71.3448 43.9274 71.4728 44.1194 71.5581 44.29C71.6434 44.4607 71.8141 44.482 72.0701 44.354C72.5394 44.1407 72.7314 43.7354 72.6461 43.138C72.6034 42.882 72.4968 42.7114 72.3261 42.626C72.1981 42.5407 71.9848 42.4767 71.6861 42.434ZM69.5741 46.594C69.3608 46.338 69.1474 46.2314 68.9341 46.274C68.7208 46.274 68.4434 46.338 68.1021 46.466C67.8461 46.5514 67.7181 46.6794 67.7181 46.85C67.7181 47.0207 67.7181 47.234 67.7181 47.49C67.7181 47.9167 67.8888 48.1727 68.2301 48.258C68.6141 48.386 68.9128 48.514 69.1261 48.642C69.3394 48.77 69.5528 48.6634 69.7661 48.322C70.0221 47.9807 70.1288 47.7034 70.0861 47.49C70.0434 47.234 69.8728 46.9354 69.5741 46.594ZM58.5021 47.362C57.9474 47.0207 57.4994 46.8927 57.1581 46.978C56.8168 47.0207 56.3901 47.2554 55.8781 47.682C55.1954 48.2367 54.5981 48.6634 54.0861 48.962C53.6168 49.218 53.5314 49.7514 53.8301 50.562C54.1714 51.458 54.5768 51.97 55.0461 52.098C55.5581 52.226 56.3048 52.2687 57.2861 52.226C58.0541 52.1834 58.5448 51.9914 58.7581 51.65C59.0141 51.3087 59.2701 50.754 59.5261 49.986C59.6968 49.346 59.6968 48.8554 59.5261 48.514C59.3981 48.1727 59.0568 47.7887 58.5021 47.362ZM64.8381 48.45C64.5394 48.1514 64.2621 48.066 64.0061 48.194C63.7074 48.3647 63.5794 48.642 63.6221 49.026C63.6648 49.282 63.7074 49.4954 63.7501 49.666C63.8354 49.794 64.0061 49.8794 64.2621 49.922C64.5181 49.9647 64.6674 49.922 64.7101 49.794C64.7954 49.6234 64.9021 49.4314 65.0301 49.218C65.1581 48.962 65.0941 48.706 64.8381 48.45ZM46.0861 48.45C45.9581 48.2794 45.7448 48.2794 45.4461 48.45C45.2328 48.5354 45.0621 48.5994 44.9341 48.642C44.8488 48.6847 44.8061 48.7914 44.8061 48.962C44.8488 49.3034 45.0834 49.5167 45.5101 49.602C45.9368 49.6874 46.2141 49.5807 46.3421 49.282C46.4701 49.1114 46.4914 48.9834 46.4061 48.898C46.3634 48.77 46.2568 48.6207 46.0861 48.45ZM69.4461 51.01C69.4461 50.7114 69.4674 50.4767 69.5101 50.306C69.5954 50.1354 69.5101 50.0074 69.2541 49.922C68.9554 49.8367 68.7421 49.858 68.6141 49.986C68.5288 50.114 68.3794 50.2847 68.1661 50.498C67.9954 50.7967 68.0168 51.1167 68.2301 51.458C68.4008 51.6714 68.5288 51.8207 68.6141 51.906C68.7421 51.9914 68.9341 51.9914 69.1901 51.906C69.4034 51.8634 69.4888 51.778 69.4461 51.65C69.4461 51.4794 69.4461 51.266 69.4461 51.01ZM51.0781 50.818C50.5661 50.6047 50.1821 50.6047 49.9261 50.818C49.6701 51.0314 49.3714 51.3727 49.0301 51.842C48.6461 52.3114 48.3474 52.6954 48.1341 52.994C47.9208 53.25 47.9848 53.634 48.3261 54.146C48.7101 54.7434 49.0728 55.106 49.4141 55.234C49.7554 55.3194 50.2461 55.2767 50.8861 55.106C51.4834 54.9354 51.7821 54.6794 51.7821 54.338C51.8248 53.9967 51.8674 53.5274 51.9101 52.93C51.9528 52.3754 51.9528 51.9487 51.9101 51.65C51.9101 51.3087 51.6328 51.0314 51.0781 50.818ZM32.0701 51.458L31.6221 51.074L31.4301 51.65L31.6221 52.034L32.1341 51.97L32.0701 51.458ZM74.1821 54.402C73.9261 53.5914 73.6061 53.0794 73.2221 52.866C72.8381 52.61 72.2194 52.482 71.3661 52.482C70.5554 52.482 69.9794 52.6314 69.6381 52.93C69.3394 53.186 69.0621 53.698 68.8061 54.466C68.5928 55.1914 68.5714 55.7247 68.7421 56.066C68.9128 56.4074 69.3181 56.8127 69.9581 57.282C70.4701 57.666 70.8968 57.794 71.2381 57.666C71.5794 57.538 72.0061 57.282 72.5181 56.898C73.1154 56.4714 73.5848 56.13 73.9261 55.874C74.3101 55.5754 74.3954 55.0847 74.1821 54.402ZM42.1821 52.482L41.8621 52.738L41.7981 53.186L42.3101 53.25L42.4381 52.802L42.1821 52.482ZM34.8221 54.85C34.3101 54.5087 33.9048 54.2527 33.6061 54.082C33.3074 53.8687 32.9234 53.9327 32.4541 54.274C31.9421 54.658 31.7074 55.0207 31.7501 55.362C31.7928 55.7034 31.9208 56.1727 32.1341 56.77C32.3048 57.3674 32.4968 57.794 32.7101 58.05C32.9234 58.2634 33.3288 58.37 33.9261 58.37C34.6941 58.37 35.2914 58.3487 35.7181 58.306C36.1874 58.2207 36.5288 57.8154 36.7421 57.09C36.9554 56.3647 36.8274 55.9167 36.3581 55.746C35.9314 55.5754 35.4194 55.2767 34.8221 54.85ZM41.6061 54.978L40.9021 54.53L40.5821 55.234L40.7741 55.746L41.6061 55.81V54.978ZM54.2141 55.81C53.8728 55.6394 53.6168 55.618 53.4461 55.746C53.2754 55.874 53.0621 56.066 52.8061 56.322C52.4648 56.6634 52.4221 57.0687 52.6781 57.538C52.8061 57.794 52.9128 57.986 52.9981 58.114C53.1261 58.242 53.3608 58.2847 53.7021 58.242C54.0434 58.1994 54.2994 58.1354 54.4701 58.05C54.6408 57.922 54.7688 57.6874 54.8541 57.346C54.8968 56.9194 54.8754 56.5994 54.7901 56.386C54.7474 56.1727 54.5554 55.9807 54.2141 55.81ZM68.8061 59.97C68.2941 59.5434 67.8888 59.458 67.5901 59.714C67.2914 59.9274 66.8648 60.2047 66.3101 60.546C65.7128 60.93 65.1794 61.2074 64.7101 61.378C64.2834 61.5487 64.1768 61.9967 64.3901 62.722C64.5608 63.49 64.8381 63.9594 65.2221 64.13C65.6488 64.258 66.2674 64.3434 67.0781 64.386C67.7181 64.4287 68.1234 64.3007 68.2941 64.002C68.5074 63.6607 68.7208 63.1914 68.9341 62.594C69.1901 61.9967 69.3608 61.5274 69.4461 61.186C69.5314 60.802 69.3181 60.3967 68.8061 59.97ZM72.6461 60.226L71.8141 60.418L71.5581 61.314L72.3901 61.442L73.0301 61.058L72.6461 60.226ZM37.1261 62.786C37.1261 62.4447 37.1261 62.1887 37.1261 62.018C37.1261 61.8474 36.9768 61.7194 36.6781 61.634C36.3794 61.5487 36.1661 61.5914 36.0381 61.762C35.9528 61.89 35.8248 62.082 35.6541 62.338C35.4834 62.6367 35.5261 62.9354 35.7821 63.234C36.0381 63.618 36.3368 63.746 36.6781 63.618C36.9768 63.49 37.1261 63.2127 37.1261 62.786ZM72.6461 68.226C72.3474 67.714 72.0914 67.33 71.8781 67.074C71.7074 66.818 71.3234 66.754 70.7261 66.882C70.1288 67.01 69.7234 67.202 69.5101 67.458C69.2968 67.714 69.1474 68.162 69.0621 68.802C69.0194 69.3994 69.0834 69.826 69.2541 70.082C69.4248 70.338 69.7874 70.594 70.3421 70.85C70.9821 71.1487 71.4941 71.3834 71.8781 71.554C72.2621 71.682 72.6888 71.4687 73.1581 70.914C73.6274 70.4447 73.7341 70.0394 73.4781 69.698C73.2648 69.314 72.9874 68.8234 72.6461 68.226ZM38.0861 67.33L37.4461 66.946L36.5501 66.882L36.6141 67.97H37.5741L38.0861 67.33ZM64.5181 68.29L63.8781 68.61V69.378L64.6461 69.634L65.0941 68.866L64.5181 68.29Z" fill="#8976FD"/>
<rect x="1.5" y="1.5" width="100" height="100" rx="18.5" stroke="#8976FD" stroke-width="3"/>
</svg>
